<svg width="30" height="29" viewBox="0 0 30 29" fill="none" xmlns="http://www.w3.org/2000/svg">
<path fill-rule="evenodd" clip-rule="evenodd" d="M16.8867 0.63201C16.3168 0.290026 15.6647 0.109375 15 0.109375C14.3354 0.109375 13.6833 0.290026 13.1134 0.63201L2.44669 7.03201C1.90379 7.35779 1.45451 7.81859 1.14258 8.36956C0.830643 8.92052 0.666692 9.54287 0.666687 10.176V24.6667C0.666687 25.6391 1.053 26.5718 1.74063 27.2594C2.42826 27.947 3.36089 28.3333 4.33335 28.3333H25.6667C26.6391 28.3333 27.5718 27.947 28.2594 27.2594C28.947 26.5718 29.3334 25.6391 29.3334 24.6667V10.176C29.3333 9.54287 29.1694 8.92052 28.8575 8.36956C28.5455 7.81859 28.0962 7.35779 27.5534 7.03201L16.8867 0.63201ZM8.90669 13.1813C8.79944 13.1009 8.67711 13.0428 8.54696 13.0106C8.41681 12.9783 8.28151 12.9726 8.1491 12.9937C8.01669 13.0148 7.88988 13.0623 7.77621 13.1334C7.66253 13.2045 7.56432 13.2977 7.48741 13.4076C7.41049 13.5174 7.35645 13.6416 7.32849 13.7727C7.30053 13.9038 7.29923 14.0393 7.32467 14.1709C7.3501 14.3025 7.40175 14.4277 7.47654 14.539C7.55133 14.6503 7.64773 14.7454 7.76002 14.8187L14.4267 19.4853C14.5947 19.6029 14.7949 19.666 15 19.666C15.2051 19.666 15.4053 19.6029 15.5734 19.4853L22.24 14.8187C22.3523 14.7454 22.4487 14.6503 22.5235 14.539C22.5983 14.4277 22.6499 14.3025 22.6754 14.1709C22.7008 14.0393 22.6995 13.9038 22.6715 13.7727C22.6436 13.6416 22.5895 13.5174 22.5126 13.4076C22.4357 13.2977 22.3375 13.2045 22.2238 13.1334C22.1102 13.0623 21.9833 13.0148 21.8509 12.9937C21.7185 12.9726 21.5832 12.9783 21.4531 13.0106C21.3229 13.0428 21.2006 13.1009 21.0934 13.1813L15 17.4467L8.90669 13.1813Z" fill="#F8F8F8"/>
</svg>
