<svg width="32" height="32" viewBox="0 0 32 32" fill="none" xmlns="http://www.w3.org/2000/svg">
<path d="M27.3367 4.62433C25.8624 3.15272 24.1064 1.98592 22.1711 1.19199C20.2357 0.398056 18.1598 -0.00711928 16.0643 9.46611e-05C7.28442 9.46611e-05 0.128643 7.07151 0.128643 15.7479C0.128643 18.5288 0.868342 21.2302 2.25126 23.6139L0 31.7818L8.44221 29.5888C10.7739 30.8442 13.395 31.5116 16.0643 31.5116C24.8442 31.5116 32 24.4402 32 15.7638C32 11.5527 30.3437 7.59591 27.3367 4.62433ZM16.0643 28.842C13.6844 28.842 11.3528 28.2063 9.31055 27.0145L8.82814 26.7285L3.81106 28.0315L5.14573 23.2007L4.82412 22.7081C3.5019 20.6216 2.79982 18.2098 2.79799 15.7479C2.79799 8.53347 8.74774 2.65386 16.0482 2.65386C19.5859 2.65386 22.9146 4.02048 25.407 6.49944C26.6412 7.71345 27.6192 9.15744 28.2845 10.7477C28.9497 12.338 29.2889 14.043 29.2824 15.7638C29.3146 22.9782 23.3648 28.842 16.0643 28.842ZM23.3327 19.0532C22.9307 18.8625 20.9688 17.9091 20.6151 17.766C20.2452 17.6389 19.9879 17.5754 19.7146 17.9567C19.4412 18.354 18.6854 19.2439 18.4603 19.4981C18.2352 19.7683 17.994 19.8001 17.592 19.5935C17.1899 19.4028 15.9035 18.9737 14.392 17.6389C13.202 16.5901 12.4141 15.303 12.1729 14.9057C11.9477 14.5084 12.1407 14.3018 12.3497 14.0953C12.5266 13.9205 12.7518 13.6344 12.9447 13.412C13.1377 13.1895 13.2181 13.0147 13.3467 12.7604C13.4754 12.4903 13.4111 12.2678 13.3146 12.0771C13.2181 11.8864 12.4141 9.94775 12.0925 9.15321C11.7709 8.39045 11.4332 8.4858 11.192 8.46991H10.4201C10.1467 8.46991 9.72864 8.56525 9.35879 8.96252C9.00502 9.35979 7.97588 10.3132 7.97588 12.2519C7.97588 14.1906 9.40703 16.0657 9.6 16.32C9.79296 16.5901 12.4141 20.5628 16.402 22.2631C17.3508 22.6763 18.0905 22.9147 18.6693 23.0895C19.6181 23.3914 20.4864 23.3437 21.1779 23.2484C21.9497 23.1371 23.5417 22.2949 23.8633 21.3733C24.201 20.4516 24.201 19.6729 24.0884 19.4981C23.9759 19.3233 23.7347 19.2439 23.3327 19.0532Z" fill="#F8F8F8"/>
</svg>
